<svg version="1.1" id="Layer_1" xmlns="http://www.w3.org/2000/svg" xmlns:xlink="http://www.w3.org/1999/xlink" x="0px" y="0px"
	 width="100%" viewBox="0 0 500 500" enable-background="new 0 0 500 500" xml:space="preserve">
<path fill="#000001" opacity="1.000000" stroke="none" 
	d="
M277.000000,501.000000 
	C184.666687,501.000000 92.833374,501.000000 1.000049,501.000000 
	C1.000033,334.333405 1.000033,167.666794 1.000016,1.000139 
	C167.666565,1.000093 334.333130,1.000093 500.999756,1.000046 
	C500.999847,167.666519 500.999847,334.333038 500.999939,500.999786 
	C426.500000,501.000000 352.000000,501.000000 277.000000,501.000000 
M350.931122,207.447311 
	C350.639404,207.247131 350.347656,207.046951 350.026581,206.215530 
	C349.969269,204.988617 349.911957,203.761688 349.993988,201.703812 
	C350.016632,198.848907 350.039246,195.994019 350.578552,192.938889 
	C350.659424,192.619644 350.740295,192.300400 350.951294,191.116486 
	C350.903839,189.080093 350.856415,187.043701 350.974609,184.181931 
	C350.984894,182.778900 350.995178,181.375870 351.589050,179.383942 
	C351.412231,173.601913 351.235413,167.819870 351.242371,161.131638 
	C351.156738,157.755249 351.071106,154.378860 351.218170,150.116455 
	C351.202545,147.080063 351.186890,144.043686 351.185822,140.125214 
	C351.048767,138.081573 350.911713,136.037949 350.899414,133.489929 
	C350.821533,133.335220 350.743652,133.180527 350.749908,132.220215 
	C350.738037,131.141464 350.726166,130.062714 350.943146,128.401169 
	C350.624451,127.957001 350.305786,127.512825 349.281128,126.660355 
	C344.148041,126.634338 338.960663,127.070282 333.894440,126.475113 
	C326.103607,125.559860 320.087769,128.320267 315.047302,133.910522 
	C312.991180,136.190918 311.028290,138.555435 308.389648,141.133987 
	C305.909882,143.709015 303.430115,146.284042 300.343292,149.169479 
	C295.014557,154.790253 289.685822,160.411026 284.055237,166.078537 
	C284.055237,166.078537 284.026611,166.382614 283.707764,166.467865 
	C283.503204,166.595383 283.397430,166.779633 283.102600,167.044052 
	C283.102600,167.044052 283.077454,167.331665 282.695435,167.639801 
	C282.800995,167.953186 282.906555,168.266571 283.012115,168.579956 
	C282.963226,168.420944 282.914337,168.261932 281.785828,169.067764 
	C281.519653,169.470383 281.253479,169.872986 280.653290,170.047440 
	C280.305511,170.634628 279.957764,171.221817 278.953857,172.131470 
	C278.186432,173.045761 277.419006,173.960068 275.966248,174.844955 
	C274.835907,176.832230 272.740540,178.823593 272.748932,180.806030 
	C272.778870,187.881790 273.518982,194.954803 274.000519,202.028183 
	C274.112366,203.670761 274.264282,205.310623 274.684113,207.531433 
	C278.533813,212.759354 282.383484,217.987289 286.743408,223.908157 
	C290.777435,219.355469 294.414581,215.250641 298.678223,210.870087 
	C303.876648,205.869186 309.075073,200.868271 315.253998,194.924103 
	C315.253998,202.358826 315.253998,208.165741 315.076050,214.772217 
	C315.117798,215.859650 315.159546,216.947067 315.055695,218.500458 
	C315.055695,218.500458 315.212738,218.962677 315.084656,219.737717 
	C315.195923,220.506790 315.307220,221.275864 315.298187,222.946411 
	C315.275604,226.286133 315.253021,229.625839 315.083069,233.817337 
	C315.140533,235.540878 315.197998,237.264435 315.084351,239.681686 
	C315.143463,241.096420 315.202606,242.511169 315.085205,244.707367 
	C315.148865,247.802353 315.212555,250.897324 315.109497,254.889023 
	C315.140015,257.925537 315.170532,260.962067 315.046387,264.778656 
	C315.173798,266.131134 315.301178,267.483612 315.318787,267.670441 
	C323.128754,265.269958 330.562500,262.985138 338.642059,260.902069 
	C339.091919,260.931793 339.541748,260.961517 340.413208,261.556122 
	C343.736542,262.019470 347.059906,262.482849 350.536987,262.967621 
	C350.536987,256.455139 350.536987,250.218567 350.726410,243.236923 
	C350.667053,242.475372 350.607697,241.713806 350.769135,240.098663 
	C350.697235,237.757263 350.625336,235.415848 350.733307,232.159760 
	C350.678558,228.449478 350.623810,224.739212 350.791412,220.176788 
	C350.708771,218.423187 350.626129,216.669571 350.700958,214.107147 
	C350.651794,212.738510 350.602600,211.369858 350.810883,209.357086 
	C350.803589,208.895782 350.796295,208.434464 350.931122,207.447311 
M151.322006,196.857025 
	C151.370041,198.867722 151.418076,200.878433 151.199234,203.802429 
	C151.278900,208.850357 151.358566,213.898300 151.282745,219.778824 
	C151.361526,221.178116 151.440308,222.577408 151.297363,224.641815 
	C151.357986,225.100616 151.418610,225.559402 151.297806,226.505997 
	C151.373489,226.662094 151.449188,226.818192 151.344482,227.840485 
	C151.397919,229.899796 151.451370,231.959091 151.246399,234.831192 
	C151.342331,236.519333 151.438248,238.207458 151.363052,240.730621 
	C151.421356,241.853470 151.479645,242.976318 151.318634,244.927444 
	C151.391953,246.912506 151.465271,248.897583 151.373077,251.600174 
	C151.428696,252.084702 151.484329,252.569214 151.314804,253.502823 
	C151.396637,253.648926 151.478485,253.795013 151.394302,254.677231 
	C151.461853,255.422714 151.529419,256.168182 151.306961,257.694305 
	C151.468170,259.678802 151.629379,261.663300 151.833008,264.169830 
	C164.352570,258.408966 174.913437,261.386078 185.524460,268.592865 
	C186.127380,267.773163 187.246552,266.957184 187.252518,266.133148 
	C187.305878,258.772308 187.162918,251.410019 187.319641,243.129883 
	C187.236023,237.743225 187.152405,232.356583 187.291809,226.059143 
	C187.291809,216.030853 187.291809,206.002563 187.291809,194.879120 
	C193.236832,200.829391 198.303787,205.900833 203.702148,211.507706 
	C207.448074,215.638275 211.194000,219.768845 215.421631,224.430573 
	C219.552185,218.462631 222.808548,213.757751 226.677383,208.714172 
	C226.983887,206.137314 227.290390,203.560471 227.699432,200.189255 
	C227.613251,199.133545 227.527069,198.077850 227.695572,196.216339 
	C227.711487,194.809479 227.727417,193.402603 228.040970,191.193069 
	C228.365753,187.796692 228.690552,184.400314 229.534393,180.595078 
	C228.067871,178.237778 226.601349,175.880493 224.832092,172.909592 
	C223.706665,171.875107 222.581238,170.840622 221.196167,169.152679 
	C215.846405,163.741791 210.496643,158.330902 204.852982,152.299347 
	C200.177429,147.547287 195.501877,142.795227 190.583984,137.424683 
	C188.259003,135.316391 186.047333,133.062027 183.574692,131.144104 
	C181.435898,129.485123 179.052063,127.074539 176.687347,126.967537 
	C168.444870,126.594559 160.163681,127.077194 151.387146,127.419022 
	C151.399612,127.923851 151.412079,128.428680 151.353119,129.707550 
	C151.387146,130.482803 151.421173,131.258057 151.156021,132.784927 
	C151.250854,133.846375 151.345703,134.907837 151.346832,136.733963 
	C151.446106,137.487076 151.545364,138.240189 151.352844,139.832336 
	C151.377991,141.905243 151.403137,143.978149 151.146652,146.804337 
	C151.242630,147.856720 151.338608,148.909088 151.317429,150.740875 
	C151.350113,151.526825 151.382812,152.312775 151.143234,153.947723 
	C151.252045,157.766159 151.360870,161.584610 151.364090,165.998581 
	C151.399475,167.006683 151.434860,168.014786 151.172775,169.810196 
	C151.271896,171.195587 151.371017,172.580994 151.363647,174.714386 
	C151.394592,175.467911 151.425552,176.221451 151.154099,177.800232 
	C151.259796,179.544312 151.365494,181.288391 151.356812,183.754013 
	C151.392838,184.481781 151.428864,185.209564 151.170471,186.814560 
	C151.262527,189.876389 151.354599,192.938217 151.322006,196.857025 
M237.509628,239.331360 
	C237.587799,239.646362 237.786011,239.771988 238.725037,240.108383 
	C241.685883,240.959457 244.646729,241.810547 248.529938,242.926758 
	C248.126694,240.835266 247.868088,239.493958 247.838684,237.303894 
	C247.460358,234.215836 247.082031,231.127762 246.876251,227.397766 
	C246.891617,227.176712 246.906967,226.955673 247.372025,226.532745 
	C247.427841,226.052109 247.483643,225.571472 247.857513,224.581894 
	C247.868591,224.382141 247.879684,224.182404 248.455261,223.497391 
	C249.180634,221.806793 249.906021,220.116211 251.096252,217.342194 
	C252.430542,220.251328 253.287094,222.118851 254.241135,224.875717 
	C254.412689,228.444458 254.584229,232.013184 254.907715,235.481186 
	C254.907715,235.481186 254.784439,235.421112 254.784439,235.421112 
	C254.784439,235.421112 254.794693,235.639877 254.735153,236.774368 
	C254.624756,237.521149 254.514359,238.267914 254.197800,239.772278 
	C254.587479,240.695618 255.054230,242.444702 255.355118,242.416626 
	C259.019318,242.074661 263.123749,242.439346 265.420990,237.447647 
	C265.601135,235.964981 265.781250,234.482300 266.019928,232.986099 
	C266.019928,232.986099 265.999664,232.929520 266.368530,232.780136 
	C266.368530,232.780136 266.609222,232.465881 266.609222,232.465881 
	C266.609222,232.465881 266.381012,232.142654 266.638916,231.323929 
	C267.096771,227.884949 267.554596,224.445984 268.635315,220.546097 
	C269.082764,216.347534 269.530212,212.148987 270.580261,207.419250 
	C272.626984,192.693893 269.788971,178.722015 263.932831,165.257324 
	C263.048981,163.225098 262.469269,160.041214 258.601624,161.277039 
	C258.904968,159.980545 259.889954,158.267883 259.395721,157.458389 
	C257.044495,153.607452 254.290741,150.002289 251.025650,145.383682 
	C247.509308,150.444244 244.661652,154.542465 241.813980,158.640686 
	C242.001511,159.214478 242.189041,159.788254 242.376556,160.362045 
	C247.618225,160.601028 252.859894,160.840027 258.369690,161.091232 
	C258.043060,161.736435 257.698914,162.416245 256.448364,163.255859 
	C256.214294,163.454254 255.980270,163.652649 255.166504,163.719009 
	C254.397720,163.793243 253.628937,163.867477 252.124908,163.756592 
	C251.122910,163.821243 250.120926,163.885895 248.585434,163.696564 
	C247.803177,163.732086 247.020920,163.767609 245.594147,163.245239 
	C243.907455,162.725433 242.220764,162.205627 240.410065,161.647614 
	C236.240585,170.600464 232.221741,179.215530 231.378479,189.563217 
	C231.489777,193.306931 231.601074,197.050629 231.456848,201.577408 
	C231.539108,202.106262 231.621368,202.635101 231.406494,203.627350 
	C231.607605,204.078461 231.808716,204.529572 231.997650,204.997574 
	C231.997650,204.997574 232.015839,204.992767 232.008499,205.904709 
	C232.391861,209.586456 232.775223,213.268188 233.175125,217.796829 
	C234.116272,222.531265 235.057434,227.265701 236.021774,232.806091 
	C236.429520,234.525116 236.837250,236.244156 237.364502,238.519730 
	C237.473053,238.675385 237.581589,238.831024 237.509628,239.331360 
M230.845032,224.346146 
	C230.785370,223.885468 230.725723,223.424789 230.803787,222.371765 
	C230.534531,221.618423 230.265274,220.865082 229.899780,219.338043 
	C229.456406,217.358032 229.013016,215.378021 228.361694,212.469406 
	C225.917587,216.015472 223.661758,218.660873 222.141998,221.677139 
	C220.739914,224.459869 219.584686,227.593964 219.321243,230.659302 
	C219.060410,233.694580 220.050049,236.837311 220.219833,240.690247 
	C220.642059,243.021957 221.064285,245.353668 221.710739,248.923676 
	C226.898270,240.953003 235.625717,235.707626 230.845032,224.346146 
M271.211304,222.773376 
	C271.220154,224.488846 271.228973,226.204300 270.696381,228.403244 
	C270.501434,230.624634 269.361542,233.411728 270.289124,234.961090 
	C273.046356,239.566574 276.616943,243.685135 280.687683,249.077682 
	C281.050629,245.234695 281.260620,243.011215 281.617920,240.212112 
	C281.582611,239.819809 281.547302,239.427505 281.794708,238.540390 
	C281.764404,238.352875 281.734070,238.165344 281.984375,237.203766 
	C285.266541,227.144211 280.093384,220.059952 273.571381,212.784882 
	C272.938568,215.407715 272.449982,217.432892 271.615662,219.841522 
	C271.573486,220.548035 271.531311,221.254532 271.211304,222.773376 
M151.270538,284.507751 
	C151.363495,284.665497 151.456451,284.823212 151.403259,285.858185 
	C151.455399,287.939301 151.507538,290.020447 151.261261,292.961029 
	C151.261261,296.229736 151.261261,299.498413 151.261261,303.218811 
	C153.592026,303.218811 155.232269,303.218842 156.872513,303.218811 
	C219.121994,303.217529 281.371490,303.218719 343.620972,303.202393 
	C345.442810,303.201904 347.264557,303.016663 349.285126,303.113281 
	C349.602173,303.160919 349.812225,303.028351 350.365997,302.709900 
	C350.365997,302.709900 350.618835,302.336487 350.618835,302.336487 
	C350.618835,302.336487 350.353058,301.972107 350.653168,301.280609 
	C350.605133,298.176605 350.557129,295.072632 350.789215,291.377563 
	C350.761169,290.947418 350.733124,290.517273 350.929047,289.162689 
	C350.849426,283.506775 350.891022,277.844696 350.605469,272.199188 
	C350.533508,270.776855 349.639160,268.380463 348.739563,268.183777 
	C343.685486,267.078552 338.362579,265.347473 333.414032,265.993866 
	C322.485016,267.421326 316.185822,274.836731 312.452087,285.325989 
	C311.875397,284.762451 311.170380,284.282410 310.741272,283.622864 
	C304.658752,274.273499 293.794403,271.226257 284.320465,276.749481 
	C281.463623,278.415009 279.363708,281.428925 277.043701,283.942078 
	C276.035278,285.034424 275.346619,286.421906 273.980194,288.475861 
	C271.196106,282.493317 269.032379,277.895508 266.913757,273.277008 
	C264.761810,268.585846 262.654297,263.874298 260.527344,259.171692 
	C260.085358,259.273651 259.643402,259.375610 259.201447,259.477539 
	C259.201447,262.849548 259.201447,266.221558 259.201447,269.593567 
	C258.891418,269.619965 258.581360,269.646362 258.271332,269.672729 
	C256.958649,263.213593 255.645966,256.754425 254.082733,249.062469 
	C252.712585,251.696014 252.021378,253.024582 251.253174,254.501160 
	C250.198685,252.882950 249.398880,251.655579 248.104355,249.669006 
	C246.540558,257.815857 245.163879,264.987915 243.787186,272.160004 
	C243.256104,272.065948 242.725021,271.971893 242.193939,271.877838 
	C242.429428,267.990021 242.664917,264.102203 242.900421,260.214417 
	C242.435745,260.143463 241.971069,260.072510 241.506393,260.001556 
	C240.771423,261.424530 239.966446,262.816193 239.313416,264.275818 
	C236.210968,271.210510 233.232620,278.202911 229.979263,285.065338 
	C229.524246,286.025116 227.847946,286.638855 226.626373,286.904938 
	C226.007431,287.039734 224.421631,285.819641 224.493134,285.586670 
	C226.050003,280.515106 221.743362,279.107605 218.948380,277.325256 
	C211.286209,272.439087 198.809845,271.322266 190.228195,285.711212 
	C189.804276,285.211273 189.380371,284.711334 188.787659,283.471649 
	C185.312805,273.213409 177.982803,267.205841 167.533249,265.519897 
	C161.937332,264.617035 156.139420,265.196777 151.261856,270.561188 
	C151.357101,274.347137 151.452362,278.133057 151.361816,282.606812 
	C151.412125,283.076141 151.462433,283.545441 151.270538,284.507751 
M124.894920,374.770813 
	C125.703857,373.757019 127.184723,372.760773 127.211716,371.726593 
	C127.375954,365.434723 126.944977,359.120422 127.272743,352.842865 
	C127.420395,350.014893 128.001175,346.107452 129.887497,344.693115 
	C134.336349,341.357452 139.466507,344.609192 139.601730,350.471497 
	C139.784760,358.405579 139.647247,366.347046 139.647247,374.486816 
	C144.354019,374.486816 148.420761,374.486816 152.765076,374.486816 
	C152.765076,363.933197 152.954300,353.650055 152.612686,343.384552 
	C152.540405,341.212799 150.885040,338.793549 149.343567,337.024689 
	C143.748611,330.604431 133.344849,328.611725 124.563805,337.486389 
	C116.219772,329.727325 108.780975,329.689056 101.131348,335.204987 
	C99.444168,334.079651 98.197144,332.664307 96.747940,332.412445 
	C94.326599,331.991760 91.700935,331.962830 89.311615,332.473022 
	C88.117462,332.727997 86.395782,334.523987 86.375732,335.649017 
	C86.162277,347.627411 86.173393,359.612122 86.360428,371.591400 
	C86.377205,372.665924 87.970184,374.522919 88.977524,374.629211 
	C92.532021,375.004211 96.150253,374.775116 99.985741,374.775116 
	C99.985741,366.500610 99.942253,358.859802 100.000526,351.219818 
	C100.041588,345.837830 102.223343,343.449158 106.831741,343.504761 
	C111.374786,343.559570 113.014252,345.520386 113.023117,350.974548 
	C113.035721,358.730560 113.026321,366.486633 113.026321,374.755768 
	C117.093475,374.755768 120.551048,374.755768 124.894920,374.770813 
M182.922119,331.725891 
	C180.258163,331.727539 177.554901,331.437988 174.938370,331.791138 
	C169.402649,332.538177 164.252289,334.246033 161.567947,339.797150 
	C160.421341,342.168304 158.001419,344.877197 161.700333,346.996307 
	C164.826416,348.787201 171.877975,347.322296 173.170135,344.986908 
	C174.927841,341.810089 180.683426,340.763580 183.305344,343.235352 
	C185.165268,344.988800 185.236404,346.778259 182.649704,347.877380 
	C181.153259,348.513214 179.499954,348.822418 177.889862,349.139740 
	C174.162506,349.874359 170.333023,350.229218 166.701813,351.280060 
	C161.602417,352.755829 158.712067,356.476318 158.061981,361.744232 
	C157.498276,366.312225 160.321930,371.206421 164.853226,373.493927 
	C171.702728,376.951660 178.276123,376.121948 184.256836,371.787994 
	C187.921448,377.595703 193.085602,373.410919 197.126877,374.858002 
	C197.479828,373.891174 197.684875,373.589661 197.686508,373.287079 
	C197.730957,365.128113 197.319092,356.938354 197.890900,348.817657 
	C198.620377,338.457458 191.901352,332.653381 182.922119,331.725891 
M308.218811,350.038513 
	C308.206116,351.536804 308.190521,353.035034 308.181152,354.533356 
	C308.114410,365.214294 317.964569,376.037384 329.367004,375.572021 
	C335.886200,375.305969 340.847168,372.525452 345.819305,368.510071 
	C346.024811,370.803680 346.182129,372.559265 346.380219,374.770172 
	C348.360199,374.667267 350.050171,374.579437 351.827942,374.487030 
	C351.827942,360.424683 351.827942,346.959839 351.827942,333.589661 
	C345.226776,329.958984 346.440033,335.781372 345.971375,337.754272 
	C341.057617,335.684784 336.458069,332.445618 331.581360,331.953552 
	C319.955200,330.780426 312.962433,336.527832 308.218811,350.038513 
M204.737381,341.602234 
	C204.715286,351.230896 204.582550,360.861938 204.790222,370.485657 
	C204.821411,371.930847 206.295349,374.425140 207.359100,374.572083 
	C211.044052,375.081207 214.842560,374.768433 218.982239,374.768433 
	C218.982239,367.543854 219.255951,361.050659 218.888458,354.593964 
	C218.632645,350.099304 221.816193,345.980560 226.776382,345.629761 
	C228.402832,345.514771 230.019516,345.261322 231.885345,345.042480 
	C231.885345,340.523376 231.885345,336.236450 231.885345,330.171021 
	C226.895370,332.623505 222.807358,334.632721 218.875031,336.565369 
	C217.889755,331.966003 212.936813,330.585297 204.736298,333.291382 
	C204.736298,335.712524 204.736298,338.176910 204.737381,341.602234 
M264.029480,368.929718 
	C261.818054,369.477448 259.584473,370.562347 257.399353,370.472168 
	C250.848587,370.201935 244.229233,365.140442 242.713638,359.756256 
	C240.403717,351.550140 242.691635,344.283264 248.966583,339.944916 
	C254.451889,336.152557 262.778076,336.180786 268.308350,340.735992 
	C271.529755,343.389404 272.974854,342.562103 274.834961,339.911224 
	C270.011841,332.317444 257.761230,330.301025 252.194138,332.400482 
	C241.369171,336.482819 235.604706,344.394592 236.025726,354.671417 
	C236.407227,363.983398 242.629456,372.364838 251.690094,374.744141 
	C259.362152,376.758820 270.055115,375.652252 275.482086,366.488678 
	C271.969299,363.893097 272.017609,363.954559 268.636688,366.611542 
	C267.516052,367.492188 266.076447,367.967010 264.029480,368.929718 
M368.539581,321.290436 
	C367.822021,325.148956 367.104462,329.007507 366.378601,332.910645 
	C364.364319,332.998688 362.267853,333.090332 360.067078,333.186523 
	C360.067078,334.890839 360.067078,336.273865 360.067078,337.577728 
	C362.516876,337.854523 364.597260,338.089600 367.206329,338.384399 
	C367.206329,350.743561 367.206329,362.629608 367.206329,374.864410 
	C369.397003,374.733704 370.968903,374.639893 372.820709,374.529358 
	C372.820709,365.355499 372.815613,356.553589 372.822113,347.751678 
	C372.829254,338.037170 372.833893,338.042267 382.248138,337.990906 
	C383.035461,337.986603 383.822052,337.850525 384.961487,337.742157 
	C384.868317,336.071716 384.790009,334.668213 384.696564,332.992645 
	C381.678864,332.992645 379.013550,333.134216 376.375610,332.927002 
	C375.227051,332.836731 373.567383,332.336304 373.114899,331.496643 
	C371.131317,327.815826 374.261597,321.850922 378.429047,321.091888 
	C379.889557,320.825897 381.527161,321.217590 382.871796,320.727264 
	C383.999084,320.316193 384.817810,319.058868 385.773163,318.176239 
	C384.898590,317.451385 384.127289,316.323395 383.132324,316.068359 
	C377.506683,314.626526 372.734741,316.158234 368.539581,321.290436 
M401.428467,360.340149 
	C401.428467,352.928589 401.428467,345.517029 401.428467,338.002258 
	C405.106262,338.002258 407.985535,337.585480 410.691650,338.092590 
	C415.686157,339.028595 415.532654,336.652435 414.453888,332.878113 
	C410.246155,332.878113 406.136536,332.878113 401.469666,332.878113 
	C401.469666,328.154602 401.469666,323.766144 401.469666,318.891205 
	C399.290405,319.482727 397.769287,319.895630 395.909851,320.400330 
	C395.909851,324.642883 395.909851,328.737061 395.909851,333.118744 
	C393.225708,333.118744 390.944244,333.118744 388.296448,333.118744 
	C388.440521,334.827576 388.556030,336.197327 388.682251,337.694427 
	C391.295319,337.865265 393.557281,338.013123 395.565918,338.144440 
	C395.860474,338.638275 396.014313,338.775970 396.014801,338.914185 
	C396.045105,347.572968 396.042755,356.231934 396.089508,364.890594 
	C396.116882,369.960327 399.264832,374.118195 404.036804,374.684723 
	C407.577576,375.105072 411.208374,374.767426 414.783203,374.767426 
	C414.809998,369.520264 414.809998,369.520294 409.844666,369.416229 
	C402.938293,369.271454 401.796814,368.170135 401.428467,360.340149 
M283.419312,356.498871 
	C283.419312,362.454102 283.419312,368.409332 283.419312,374.591919 
	C285.405579,374.591919 286.989655,374.591919 288.915314,374.591919 
	C289.148773,372.643707 289.524841,370.875946 289.543152,369.104431 
	C289.606750,362.959137 289.439850,356.810516 289.559967,350.667023 
	C289.705048,343.244720 294.038940,338.736176 301.441498,338.016418 
	C306.350861,337.539124 306.582123,337.045013 303.555817,331.061768 
	C299.120880,332.954987 294.608673,334.881195 289.950073,336.869873 
	C289.721527,336.067383 289.337616,334.719330 288.930756,333.290710 
	C287.102997,333.290710 285.386322,333.290710 283.419556,333.290710 
	C283.419556,340.909332 283.419556,348.204254 283.419312,356.498871 
z"/>
<path fill="#A4D0E6" opacity="1.000000" stroke="none" 
	d="
M349.086365,302.917542 
	C347.264557,303.016663 345.442810,303.201904 343.620972,303.202393 
	C281.371490,303.218719 219.121994,303.217529 156.872513,303.218811 
	C155.232269,303.218842 153.592026,303.218811 151.261261,303.218811 
	C151.261261,299.498413 151.261261,296.229736 151.613586,292.859253 
	C152.105255,295.567627 152.244583,298.377777 152.383911,301.187927 
	C155.877335,294.074707 159.697708,288.042419 167.206451,284.814819 
	C174.974701,281.475708 181.874390,283.039581 188.762772,287.841644 
	C188.852936,286.151672 188.904694,285.181519 188.956451,284.211395 
	C189.380371,284.711334 189.804276,285.211273 190.225388,285.713593 
	C198.809845,271.322266 211.286209,272.439087 218.948380,277.325256 
	C221.743362,279.107605 226.050003,280.515106 224.493134,285.586670 
	C224.421631,285.819641 226.007431,287.039734 226.626373,286.904938 
	C227.847946,286.638855 229.524246,286.025116 229.979263,285.065338 
	C233.232620,278.202911 236.210968,271.210510 239.313416,264.275818 
	C239.966446,262.816193 240.771423,261.424530 241.506393,260.001556 
	C241.971069,260.072510 242.435745,260.143463 242.900421,260.214417 
	C242.664917,264.102203 242.429428,267.990021 242.193939,271.877838 
	C242.725021,271.971893 243.256104,272.065948 243.787186,272.160004 
	C245.163879,264.987915 246.540558,257.815857 248.104355,249.669006 
	C249.398880,251.655579 250.198685,252.882950 251.253174,254.501160 
	C252.021378,253.024582 252.712585,251.696014 254.082733,249.062469 
	C255.645966,256.754425 256.958649,263.213593 258.271332,269.672729 
	C258.581360,269.646362 258.891418,269.619965 259.201447,269.593567 
	C259.201447,266.221558 259.201447,262.849548 259.201447,259.477539 
	C259.643402,259.375610 260.085358,259.273651 260.527344,259.171692 
	C262.654297,263.874298 264.761810,268.585846 266.913757,273.277008 
	C269.032379,277.895508 271.196106,282.493317 273.980194,288.475861 
	C275.346619,286.421906 276.035278,285.034424 277.043701,283.942078 
	C279.363708,281.428925 281.463623,278.415009 284.320465,276.749481 
	C293.794403,271.226257 304.658752,274.273499 310.741272,283.622864 
	C311.170380,284.282410 311.875397,284.762451 312.779083,285.540405 
	C313.106079,286.551758 313.106079,287.348694 313.106079,288.412781 
	C329.855499,274.999573 347.068115,289.318756 349.086365,302.917542 
z"/>
<path fill="#F3F2F4" opacity="1.000000" stroke="none" 
	d="
M124.451775,374.763306 
	C120.551048,374.755768 117.093475,374.755768 113.026321,374.755768 
	C113.026321,366.486633 113.035721,358.730560 113.023117,350.974548 
	C113.014252,345.520386 111.374786,343.559570 106.831741,343.504761 
	C102.223343,343.449158 100.041588,345.837830 100.000526,351.219818 
	C99.942253,358.859802 99.985741,366.500610 99.985741,374.775116 
	C96.150253,374.775116 92.532021,375.004211 88.977524,374.629211 
	C87.970184,374.522919 86.377205,372.665924 86.360428,371.591400 
	C86.173393,359.612122 86.162277,347.627411 86.375732,335.649017 
	C86.395782,334.523987 88.117462,332.727997 89.311615,332.473022 
	C91.700935,331.962830 94.326599,331.991760 96.747940,332.412445 
	C98.197144,332.664307 99.444168,334.079651 101.131348,335.204987 
	C108.780975,329.689056 116.219772,329.727325 124.563805,337.486389 
	C133.344849,328.611725 143.748611,330.604431 149.343567,337.024689 
	C150.885040,338.793549 152.540405,341.212799 152.612686,343.384552 
	C152.954300,353.650055 152.765076,363.933197 152.765076,374.486816 
	C148.420761,374.486816 144.354019,374.486816 139.647247,374.486816 
	C139.647247,366.347046 139.784760,358.405579 139.601730,350.471497 
	C139.466507,344.609192 134.336349,341.357452 129.887497,344.693115 
	C128.001175,346.107452 127.420395,350.014893 127.272743,352.842865 
	C126.944977,359.120422 127.375954,365.434723 127.211716,371.726593 
	C127.184723,372.760773 125.703857,373.757019 124.451775,374.763306 
z"/>
<path fill="#F3F2F4" opacity="1.000000" stroke="none" 
	d="
M183.347107,331.731415 
	C191.901352,332.653381 198.620377,338.457458 197.890900,348.817657 
	C197.319092,356.938354 197.730957,365.128113 197.686508,373.287079 
	C197.684875,373.589661 197.479828,373.891174 197.126877,374.858002 
	C193.085602,373.410919 187.921448,377.595703 184.256836,371.787994 
	C178.276123,376.121948 171.702728,376.951660 164.853226,373.493927 
	C160.321930,371.206421 157.498276,366.312225 158.061981,361.744232 
	C158.712067,356.476318 161.602417,352.755829 166.701813,351.280060 
	C170.333023,350.229218 174.162506,349.874359 177.889862,349.139740 
	C179.499954,348.822418 181.153259,348.513214 182.649704,347.877380 
	C185.236404,346.778259 185.165268,344.988800 183.305344,343.235352 
	C180.683426,340.763580 174.927841,341.810089 173.170135,344.986908 
	C171.877975,347.322296 164.826416,348.787201 161.700333,346.996307 
	C158.001419,344.877197 160.421341,342.168304 161.567947,339.797150 
	C164.252289,334.246033 169.402649,332.538177 174.938370,331.791138 
	C177.554901,331.437988 180.258163,331.727539 183.347107,331.731415 
M172.323364,360.013550 
	C172.743515,361.742035 173.012024,364.891754 173.609802,364.955536 
	C176.345047,365.247375 179.674103,365.490509 181.819321,364.172058 
	C183.782333,362.965515 184.501617,359.735352 185.768982,357.396942 
	C185.317734,357.015411 184.866501,356.633881 184.415268,356.252350 
	C180.511795,357.260773 176.608337,358.269226 172.323364,360.013550 
z"/>
<path fill="#C7E3EF" opacity="1.000000" stroke="none" 
	d="
M274.397766,206.951736 
	C274.264282,205.310623 274.112366,203.670761 274.000519,202.028183 
	C273.518982,194.954803 272.778870,187.881790 272.748932,180.806030 
	C272.740540,178.823593 274.835907,176.832230 276.711792,174.888382 
	C279.662323,174.468124 281.863098,173.637466 284.073029,173.612488 
	C289.763397,173.548203 295.461151,174.042130 301.149872,173.947388 
	C312.042664,173.765991 322.931976,173.080170 333.821228,173.112366 
	C338.883026,173.127335 343.941345,174.332520 349.260254,175.007385 
	C349.691711,175.027756 349.864166,175.038895 350.040100,175.431000 
	C350.364197,177.198898 350.684845,178.585861 351.005493,179.972839 
	C350.995178,181.375870 350.984894,182.778900 350.566223,184.663300 
	C349.770691,186.097549 349.383514,187.050415 348.590027,188.002594 
	C344.335999,187.897400 340.829163,189.293442 336.568787,188.479401 
	C330.259064,187.273804 323.445068,188.681427 316.847839,189.016968 
	C313.413330,189.191666 309.967407,189.764587 306.555389,189.591370 
	C302.824829,189.401993 299.143280,188.370316 295.410919,188.057114 
	C292.113342,187.780396 288.760071,188.188553 285.457886,187.941071 
	C276.706085,187.285172 276.326630,187.552795 276.014252,196.540588 
	C275.973907,197.700851 276.027557,198.864380 276.030151,200.434601 
	C275.481018,202.879135 274.939392,204.915436 274.397766,206.951736 
M278.483368,176.580811 
	C278.483368,176.580811 278.423920,176.478714 278.483368,176.580811 
z"/>
<path fill="#BADDEB" opacity="1.000000" stroke="none" 
	d="
M203.370758,210.972260 
	C198.303787,205.900833 193.236832,200.829391 187.291809,194.879120 
	C187.291809,206.002563 187.291809,216.030853 186.915802,226.521271 
	C186.363419,226.984283 186.187027,226.985184 186.010941,226.738510 
	C186.011230,226.490921 186.006348,225.995773 186.007050,225.539032 
	C185.998688,221.725739 185.989624,218.369186 185.986847,214.564697 
	C185.990250,212.633331 186.072052,211.144043 185.969803,209.667496 
	C185.542175,203.491302 184.706085,203.142212 178.496597,202.913971 
	C169.988480,202.601242 161.503128,201.669662 153.004547,200.540833 
	C152.996780,196.047104 152.992477,192.015823 152.986420,187.737366 
	C152.984665,187.490173 152.993530,186.995850 153.385223,186.949097 
	C155.538574,186.773972 157.306534,186.478363 159.060852,186.544418 
	C170.383026,186.970688 181.736893,188.243774 193.012405,187.734375 
	C203.784409,187.247711 214.415146,185.378296 224.401062,191.208145 
	C225.346268,191.759949 226.621384,191.746674 227.743332,191.995743 
	C227.727417,193.402603 227.711487,194.809479 227.284424,196.725174 
	C227.114487,198.483871 227.355682,199.733749 227.596878,200.983612 
	C227.290390,203.560471 226.983887,206.137314 226.090027,208.642456 
	C224.135590,206.741135 222.936356,203.511017 221.372467,203.323593 
	C214.481277,202.497742 207.484940,202.549194 200.261993,202.272690 
	C201.279373,203.805511 202.716843,205.571487 203.657730,207.571121 
	C204.077148,208.462494 203.497162,209.824081 203.370758,210.972260 
z"/>
<path fill="#C7E3EF" opacity="1.000000" stroke="none" 
	d="
M227.892151,191.594406 
	C226.621384,191.746674 225.346268,191.759949 224.401062,191.208145 
	C214.415146,185.378296 203.784409,187.247711 193.012405,187.734375 
	C181.736893,188.243774 170.383026,186.970688 159.060852,186.544418 
	C157.306534,186.478363 155.538574,186.773972 153.378387,186.486420 
	C152.989716,182.048721 152.999573,178.026917 153.400269,173.996307 
	C157.052353,173.991653 160.314285,173.954224 163.574768,174.006821 
	C183.383545,174.326294 203.192017,174.666275 223.192596,175.266113 
	C225.261520,177.356537 227.138428,179.180237 229.015335,181.003937 
	C228.690552,184.400314 228.365753,187.796692 227.892151,191.594406 
z"/>
<path fill="#BADDEB" opacity="1.000000" stroke="none" 
	d="
M276.037659,200.026398 
	C276.027557,198.864380 275.973907,197.700851 276.014252,196.540588 
	C276.326630,187.552795 276.706085,187.285172 285.457886,187.941071 
	C288.760071,188.188553 292.113342,187.780396 295.410919,188.057114 
	C299.143280,188.370316 302.824829,189.401993 306.555389,189.591370 
	C309.967407,189.764587 313.413330,189.191666 316.847839,189.016968 
	C323.445068,188.681427 330.259064,187.273804 336.568787,188.479401 
	C340.829163,189.293442 344.335999,187.897400 348.591278,188.367950 
	C349.333679,189.824997 349.668549,190.916016 350.007507,192.290588 
	C350.028381,192.762482 350.045105,192.950806 350.061859,193.139114 
	C350.039246,195.994019 350.016632,198.848907 349.469543,201.979340 
	C345.746094,201.632996 342.544250,200.498184 339.348816,200.515854 
	C335.117645,200.539261 330.900116,201.827118 326.661407,201.928024 
	C316.976410,202.158600 316.972626,201.999680 316.977325,212.307678 
	C316.379639,213.060684 315.816803,213.516678 315.253998,213.972656 
	C315.253998,208.165741 315.253998,202.358826 315.253998,194.924103 
	C309.075073,200.868271 303.876648,205.869186 298.353516,210.622803 
	C298.510681,209.187988 299.200653,208.035446 299.408295,206.801743 
	C299.573242,205.821732 299.426971,204.013794 298.939178,203.827133 
	C296.086243,202.735535 293.000275,201.089371 290.165924,201.371002 
	C285.260162,201.858444 280.601746,202.121780 276.037659,200.026398 
z"/>
<path fill="#EAE9EF" opacity="1.000000" stroke="none" 
	d="
M308.292419,349.617737 
	C312.962433,336.527832 319.955200,330.780426 331.581360,331.953552 
	C336.458069,332.445618 341.057617,335.684784 345.971375,337.754272 
	C346.440033,335.781372 345.226776,329.958984 351.827942,333.589661 
	C351.827942,346.959839 351.827942,360.424683 351.827942,374.487030 
	C350.050171,374.579437 348.360199,374.667267 346.380219,374.770172 
	C346.182129,372.559265 346.024811,370.803680 345.819305,368.510071 
	C340.847168,372.525452 335.886200,375.305969 329.367004,375.572021 
	C317.964569,376.037384 308.114410,365.214294 308.181152,354.533356 
	C308.190521,353.035034 308.206116,351.536804 308.292419,349.617737 
M321.061432,367.713684 
	C322.277222,368.252991 323.469696,368.854187 324.712646,369.321228 
	C331.343567,371.812775 340.662964,368.577850 343.877380,362.698578 
	C347.940735,355.266571 346.289673,345.207245 340.264099,340.683533 
	C333.134766,335.331238 322.528748,336.399719 317.461273,342.883575 
	C312.422821,349.330353 312.765167,362.337158 321.061432,367.713684 
z"/>
<path fill="#F3F2F4" opacity="1.000000" stroke="none" 
	d="
M204.736847,341.121765 
	C204.736298,338.176910 204.736298,335.712524 204.736298,333.291382 
	C212.936813,330.585297 217.889755,331.966003 218.875031,336.565369 
	C222.807358,334.632721 226.895370,332.623505 231.885345,330.171021 
	C231.885345,336.236450 231.885345,340.523376 231.885345,345.042480 
	C230.019516,345.261322 228.402832,345.514771 226.776382,345.629761 
	C221.816193,345.980560 218.632645,350.099304 218.888458,354.593964 
	C219.255951,361.050659 218.982239,367.543854 218.982239,374.768433 
	C214.842560,374.768433 211.044052,375.081207 207.359100,374.572083 
	C206.295349,374.425140 204.821411,371.930847 204.790222,370.485657 
	C204.582550,360.861938 204.715286,351.230896 204.736847,341.121765 
z"/>
<path fill="#DDEEF5" opacity="1.000000" stroke="none" 
	d="
M350.985443,151.002472 
	C351.071106,154.378860 351.156738,157.755249 350.890778,161.788818 
	C350.379272,163.308533 350.219391,164.171097 349.671814,165.014343 
	C347.487091,164.345474 345.700195,163.168564 343.891266,163.133636 
	C333.671875,162.936264 323.445648,162.895050 313.224792,163.030182 
	C303.523987,163.158447 293.735016,162.694901 284.357086,166.031799 
	C289.685822,160.411026 295.014557,154.790253 300.671997,149.377640 
	C301.791565,150.027939 302.686371,150.950134 303.350403,150.806366 
	C304.519714,150.553177 305.550415,149.104019 306.635040,149.108673 
	C312.265259,149.132889 317.892548,149.568924 323.523926,149.651871 
	C331.011261,149.762146 338.501434,149.679077 345.990387,149.679077 
	C345.934845,149.387314 345.879303,149.095551 345.823761,148.803787 
	C347.544342,149.536682 349.264893,150.269577 350.985443,151.002472 
z"/>
<path fill="#F5F7F9" opacity="1.000000" stroke="none" 
	d="
M232.003067,189.017563 
	C232.221741,179.215530 236.240585,170.600464 240.410065,161.647614 
	C242.220764,162.205627 243.907455,162.725433 246.186432,163.638519 
	C247.558792,164.004715 248.338852,163.977631 249.118927,163.950531 
	C250.120926,163.885895 251.122910,163.821243 252.781540,163.905884 
	C254.207535,163.987122 254.976883,163.919067 255.746246,163.851028 
	C255.980270,163.652649 256.214294,163.454254 257.134888,163.186340 
	C257.821381,163.116806 258.284637,163.094727 258.284637,163.094727 
	C258.284637,163.094727 258.748413,163.095139 258.992950,163.374237 
	C263.815643,173.299728 263.945282,183.645432 263.615692,194.016632 
	C262.483887,195.077896 261.257324,196.053452 261.093567,197.183075 
	C260.516327,201.164673 258.401947,203.246628 254.442200,202.942917 
	C251.861603,202.744995 249.340958,201.863373 246.767426,201.450256 
	C243.586136,200.939575 240.332230,200.111252 237.202240,200.405304 
	C235.824951,200.534729 234.709686,203.126907 233.397568,204.527985 
	C233.105057,204.840317 232.485062,204.845932 232.015839,204.992767 
	C232.015839,204.992767 231.997650,204.997574 232.012924,204.752823 
	C231.920013,204.060028 231.811829,203.612000 231.703644,203.163956 
	C231.621368,202.635101 231.539108,202.106262 231.707535,200.818542 
	C231.973175,196.378967 231.988113,192.698273 232.003067,189.017563 
M250.379837,196.750778 
	C250.901459,196.649185 251.423065,196.547607 252.666656,196.163788 
	C258.658356,194.113052 261.696686,189.553909 260.733917,184.058533 
	C259.756653,178.480392 256.339630,175.829163 250.246857,175.921738 
	C245.159180,175.999039 241.851135,179.223450 240.923096,185.009766 
	C240.095108,190.172195 243.165421,194.018326 250.379837,196.750778 
z"/>
<path fill="#DDEEF5" opacity="1.000000" stroke="none" 
	d="
M151.415497,153.098724 
	C151.382812,152.312775 151.350113,151.526825 151.548477,150.423981 
	C151.779526,150.107086 152.132812,149.988037 152.524368,149.933899 
	C160.865143,150.057388 168.814606,150.224365 176.763458,150.417084 
	C180.883530,150.516968 185.027222,150.997849 189.115250,150.696442 
	C193.525482,150.371292 197.717758,150.193649 201.705582,152.577988 
	C202.600800,153.113251 203.986801,152.827698 205.146866,152.920013 
	C210.496643,158.330902 215.846405,163.741791 220.957703,169.504669 
	C216.972580,167.754578 213.441299,164.859467 209.420334,163.767532 
	C205.172546,162.614014 200.458984,163.049408 195.947342,163.018738 
	C184.690567,162.942169 173.432938,162.994354 162.175644,162.996262 
	C159.119629,162.996780 156.063629,163.002274 153.004379,162.592651 
	C152.722321,160.123108 152.443497,158.066391 152.109589,155.701935 
	C151.841492,154.629028 151.628494,153.863876 151.415497,153.098724 
z"/>
<path fill="#D2E9F2" opacity="1.000000" stroke="none" 
	d="
M153.007614,163.005493 
	C156.063629,163.002274 159.119629,162.996780 162.175644,162.996262 
	C173.432938,162.994354 184.690567,162.942169 195.947342,163.018738 
	C200.458984,163.049408 205.172546,162.614014 209.420334,163.767532 
	C213.441299,164.859467 216.972580,167.754578 221.087524,169.831390 
	C222.581238,170.840622 223.706665,171.875107 224.685944,173.314911 
	C224.355255,173.818100 224.170715,173.915970 223.771271,174.122269 
	C223.287994,174.427795 223.102158,174.684616 222.999420,175.000580 
	C223.000000,175.000000 223.000580,174.999390 223.000580,174.999390 
	C203.192017,174.666275 183.383545,174.326294 163.574768,174.006821 
	C160.314285,173.954224 157.052353,173.991653 153.394379,173.537720 
	C153.000961,169.727142 153.004288,166.366318 153.007614,163.005493 
M219.484360,172.579926 
	C219.484360,172.579926 219.426529,172.479019 219.484360,172.579926 
z"/>
<path fill="#F5F7F9" opacity="1.000000" stroke="none" 
	d="
M349.185730,303.015442 
	C347.068115,289.318756 329.855499,274.999573 313.106079,288.412781 
	C313.106079,287.348694 313.106079,286.551758 313.061157,285.424744 
	C316.185822,274.836731 322.485016,267.421326 333.414032,265.993866 
	C338.362579,265.347473 343.685486,267.078552 348.739563,268.183777 
	C349.639160,268.380463 350.533508,270.776855 350.605469,272.199188 
	C350.891022,277.844696 350.849426,283.506775 350.603760,289.729675 
	C350.355347,290.853973 350.432220,291.411285 350.509125,291.968628 
	C350.557129,295.072632 350.605133,298.176605 350.334595,301.672485 
	C349.831543,302.258179 349.797974,302.475250 349.915253,302.715607 
	C349.812225,303.028351 349.602173,303.160919 349.185730,303.015442 
z"/>
<path fill="#F5F7F9" opacity="1.000000" stroke="none" 
	d="
M188.872055,283.841522 
	C188.904694,285.181519 188.852936,286.151672 188.762772,287.841644 
	C181.874390,283.039581 174.974701,281.475708 167.206451,284.814819 
	C159.697708,288.042419 155.877335,294.074707 152.383911,301.187927 
	C152.244583,298.377777 152.105255,295.567627 151.762817,292.429504 
	C151.507538,290.020447 151.455399,287.939301 151.624542,285.337585 
	C151.734802,284.549561 151.623779,284.282166 151.512741,284.014771 
	C151.462433,283.545441 151.412125,283.076141 151.661407,281.922241 
	C151.942429,277.507812 151.923843,273.777924 151.905273,270.048035 
	C156.139420,265.196777 161.937332,264.617035 167.533249,265.519897 
	C177.982803,267.205841 185.312805,273.213409 188.872055,283.841522 
z"/>
<path fill="#D2E9F2" opacity="1.000000" stroke="none" 
	d="
M284.206177,166.055176 
	C293.735016,162.694901 303.523987,163.158447 313.224792,163.030182 
	C323.445648,162.895050 333.671875,162.936264 343.891266,163.133636 
	C345.700195,163.168564 347.487091,164.345474 349.672485,165.445862 
	C350.051514,167.919067 350.042175,169.941422 349.771332,172.177856 
	C349.340271,173.260681 349.170746,174.129425 349.001221,174.998169 
	C343.941345,174.332520 338.883026,173.127335 333.821228,173.112366 
	C322.931976,173.080170 312.042664,173.765991 301.149872,173.947388 
	C295.461151,174.042130 289.763397,173.548203 284.073029,173.612488 
	C281.863098,173.637466 279.662323,174.468124 277.054443,174.903091 
	C277.419006,173.960068 278.186432,173.045761 279.397522,171.848862 
	C280.223206,171.136032 280.605255,170.705811 280.987305,170.275604 
	C281.253479,169.872986 281.519653,169.470383 282.327698,168.552765 
	C282.933868,167.807297 283.003143,167.571930 283.077454,167.331665 
	C283.077454,167.331665 283.102600,167.044052 283.346863,166.920837 
	C283.729095,166.651764 283.874268,166.513412 284.026611,166.382614 
	C284.026611,166.382614 284.055237,166.078537 284.206177,166.055176 
z"/>
<path fill="#EAE9EF" opacity="1.000000" stroke="none" 
	d="
M264.406067,368.778564 
	C266.076447,367.967010 267.516052,367.492188 268.636688,366.611542 
	C272.017609,363.954559 271.969299,363.893097 275.482086,366.488678 
	C270.055115,375.652252 259.362152,376.758820 251.690094,374.744141 
	C242.629456,372.364838 236.407227,363.983398 236.025726,354.671417 
	C235.604706,344.394592 241.369171,336.482819 252.194138,332.400482 
	C257.761230,330.301025 270.011841,332.317444 274.834961,339.911224 
	C272.974854,342.562103 271.529755,343.389404 268.308350,340.735992 
	C262.778076,336.180786 254.451889,336.152557 248.966583,339.944916 
	C242.691635,344.283264 240.403717,351.550140 242.713638,359.756256 
	C244.229233,365.140442 250.848587,370.201935 257.399353,370.472168 
	C259.584473,370.562347 261.818054,369.477448 264.406067,368.778564 
z"/>
<path fill="#E9F3F7" opacity="1.000000" stroke="none" 
	d="
M204.999924,152.609680 
	C203.986801,152.827698 202.600800,153.113251 201.705582,152.577988 
	C197.717758,150.193649 193.525482,150.371292 189.115250,150.696442 
	C185.027222,150.997849 180.883530,150.516968 176.763458,150.417084 
	C168.814606,150.224365 160.865143,150.057388 152.483032,149.591278 
	C151.842850,148.218887 151.635574,147.134979 151.428299,146.051056 
	C151.403137,143.978149 151.377991,141.905243 151.879608,139.389374 
	C161.880356,138.345032 171.350327,137.656418 180.831787,137.215958 
	C182.723175,137.128082 185.419968,137.350281 186.417923,138.541550 
	C188.611176,141.159668 189.472931,138.907333 190.826324,138.043182 
	C195.501877,142.795227 200.177429,147.547287 204.999924,152.609680 
z"/>
<path fill="#EAE9EF" opacity="1.000000" stroke="none" 
	d="
M368.758484,320.972046 
	C372.734741,316.158234 377.506683,314.626526 383.132324,316.068359 
	C384.127289,316.323395 384.898590,317.451385 385.773163,318.176239 
	C384.817810,319.058868 383.999084,320.316193 382.871796,320.727264 
	C381.527161,321.217590 379.889557,320.825897 378.429047,321.091888 
	C374.261597,321.850922 371.131317,327.815826 373.114899,331.496643 
	C373.567383,332.336304 375.227051,332.836731 376.375610,332.927002 
	C379.013550,333.134216 381.678864,332.992645 384.696564,332.992645 
	C384.790009,334.668213 384.868317,336.071716 384.961487,337.742157 
	C383.822052,337.850525 383.035461,337.986603 382.248138,337.990906 
	C372.833893,338.042267 372.829254,338.037170 372.822113,347.751678 
	C372.815613,356.553589 372.820709,365.355499 372.820709,374.529358 
	C370.968903,374.639893 369.397003,374.733704 367.206329,374.864410 
	C367.206329,362.629608 367.206329,350.743561 367.206329,338.384399 
	C364.597260,338.089600 362.516876,337.854523 360.067078,337.577728 
	C360.067078,336.273865 360.067078,334.890839 360.067078,333.186523 
	C362.267853,333.090332 364.364319,332.998688 366.378601,332.910645 
	C367.104462,329.007507 367.822021,325.148956 368.758484,320.972046 
z"/>
<path fill="#8ACAE3" opacity="1.000000" stroke="none" 
	d="
M151.537949,244.099167 
	C151.479645,242.976318 151.421356,241.853470 151.626648,240.005341 
	C152.001236,237.837463 152.112228,236.394882 152.569611,234.911270 
	C154.727814,234.551376 156.550156,233.912048 158.349609,233.970993 
	C164.930344,234.186478 171.507065,234.581009 178.077698,235.021393 
	C180.726517,235.198929 183.355743,235.668716 185.994904,236.436783 
	C186.356522,239.261444 186.717133,241.654800 187.077759,244.048172 
	C187.162918,251.410019 187.305878,258.772308 187.252518,266.133148 
	C187.246552,266.957184 186.127380,267.773163 185.300476,267.886566 
	C185.379684,262.902893 185.888947,258.627411 185.928101,254.347610 
	C185.967255,250.067413 183.834488,249.127472 179.493774,248.970352 
	C172.183777,248.705765 164.829666,247.999466 157.643402,246.671265 
	C153.997879,245.997482 153.221207,246.915726 152.965729,250.096100 
	C152.781448,252.390472 152.072128,254.642654 151.596970,256.913666 
	C151.529419,256.168182 151.461853,255.422714 151.589539,254.221329 
	C151.911911,253.460419 151.830307,253.223190 151.539948,253.053741 
	C151.484329,252.569214 151.428696,252.084702 151.632996,250.941498 
	C151.774582,248.221619 151.656265,246.160385 151.537949,244.099167 
z"/>
<path fill="#EAE9EF" opacity="1.000000" stroke="none" 
	d="
M401.426208,360.815918 
	C401.796814,368.170135 402.938293,369.271454 409.844666,369.416229 
	C414.809998,369.520294 414.809998,369.520264 414.783203,374.767426 
	C411.208374,374.767426 407.577576,375.105072 404.036804,374.684723 
	C399.264832,374.118195 396.116882,369.960327 396.089508,364.890594 
	C396.042755,356.231934 396.045105,347.572968 396.014801,338.914185 
	C396.014313,338.775970 395.860474,338.638275 395.565918,338.144440 
	C393.557281,338.013123 391.295319,337.865265 388.682251,337.694427 
	C388.556030,336.197327 388.440521,334.827576 388.296448,333.118744 
	C390.944244,333.118744 393.225708,333.118744 395.909851,333.118744 
	C395.909851,328.737061 395.909851,324.642883 395.909851,320.400330 
	C397.769287,319.895630 399.290405,319.482727 401.469666,318.891205 
	C401.469666,323.766144 401.469666,328.154602 401.469666,332.878113 
	C406.136536,332.878113 410.246155,332.878113 414.453888,332.878113 
	C415.532654,336.652435 415.686157,339.028595 410.691650,338.092590 
	C407.985535,337.585480 405.106262,338.002258 401.428467,338.002258 
	C401.428467,345.517029 401.428467,352.928589 401.426208,360.815918 
z"/>
<path fill="#7AB7D2" opacity="1.000000" stroke="none" 
	d="
M151.451965,257.303986 
	C152.072128,254.642654 152.781448,252.390472 152.965729,250.096100 
	C153.221207,246.915726 153.997879,245.997482 157.643402,246.671265 
	C164.829666,247.999466 172.183777,248.705765 179.493774,248.970352 
	C183.834488,249.127472 185.967255,250.067413 185.928101,254.347610 
	C185.888947,258.627411 185.379684,262.902893 185.024399,267.596069 
	C174.913437,261.386078 164.352570,258.408966 151.833008,264.169830 
	C151.629379,261.663300 151.468170,259.678802 151.451965,257.303986 
z"/>
<path fill="#E9F3F7" opacity="1.000000" stroke="none" 
	d="
M351.101807,150.559464 
	C349.264893,150.269577 347.544342,149.536682 345.823761,148.803787 
	C345.879303,149.095551 345.934845,149.387314 345.990387,149.679077 
	C338.501434,149.679077 331.011261,149.762146 323.523926,149.651871 
	C317.892548,149.568924 312.265259,149.132889 306.635040,149.108673 
	C305.550415,149.104019 304.519714,150.553177 303.350403,150.806366 
	C302.686371,150.950134 301.791565,150.027939 300.975525,149.222427 
	C303.430115,146.284042 305.909882,143.709015 309.129059,141.045074 
	C311.963470,140.705826 314.075867,140.553284 316.149811,140.184601 
	C320.357330,139.436661 324.592468,137.710571 328.728790,137.942963 
	C336.243286,138.365128 343.693970,139.923248 351.171265,141.007294 
	C351.186890,144.043686 351.202545,147.080063 351.101807,150.559464 
z"/>
<path fill="#F5F7F9" opacity="1.000000" stroke="none" 
	d="
M351.178528,140.566254 
	C343.693970,139.923248 336.243286,138.365128 328.728790,137.942963 
	C324.592468,137.710571 320.357330,139.436661 316.149811,140.184601 
	C314.075867,140.553284 311.963470,140.705826 309.445740,140.918930 
	C311.028290,138.555435 312.991180,136.190918 315.047302,133.910522 
	C320.087769,128.320267 326.103607,125.559860 333.894440,126.475113 
	C338.960663,127.070282 344.148041,126.634338 349.633179,127.133133 
	C350.228241,128.065262 350.471283,128.524612 350.714294,128.983963 
	C350.726166,130.062714 350.738037,131.141464 350.577576,132.723999 
	C350.282623,133.584717 350.405762,133.840225 350.774658,133.994308 
	C350.911713,136.037949 351.048767,138.081573 351.178528,140.566254 
z"/>
<path fill="#E1E0E6" opacity="1.000000" stroke="none" 
	d="
M283.419434,355.999023 
	C283.419556,348.204254 283.419556,340.909332 283.419556,333.290710 
	C285.386322,333.290710 287.102997,333.290710 288.930756,333.290710 
	C289.337616,334.719330 289.721527,336.067383 289.950073,336.869873 
	C294.608673,334.881195 299.120880,332.954987 303.555817,331.061768 
	C306.582123,337.045013 306.350861,337.539124 301.441498,338.016418 
	C294.038940,338.736176 289.705048,343.244720 289.559967,350.667023 
	C289.439850,356.810516 289.606750,362.959137 289.543152,369.104431 
	C289.524841,370.875946 289.148773,372.643707 288.915314,374.591919 
	C286.989655,374.591919 285.405579,374.591919 283.419312,374.591919 
	C283.419312,368.409332 283.419312,362.454102 283.419434,355.999023 
z"/>
<path fill="#99D1E6" opacity="1.000000" stroke="none" 
	d="
M315.255463,238.987976 
	C315.197998,237.264435 315.140533,235.540878 315.403687,233.084778 
	C315.891632,229.897293 316.058929,227.442383 316.506165,224.791702 
	C318.199493,222.129456 319.517578,220.222595 323.165375,220.439621 
	C332.034729,220.967300 340.943542,220.832062 350.018372,221.002426 
	C350.200287,221.040985 350.569061,221.028931 350.569061,221.028931 
	C350.623810,224.739212 350.678558,228.449478 350.441467,232.936890 
	C350.043243,235.791443 349.936859,237.868851 349.582581,239.654083 
	C349.103882,237.425797 348.873016,235.489716 348.630859,233.458679 
	C346.278076,232.774155 344.135712,231.657410 341.972870,231.616211 
	C336.018463,231.502823 329.988434,232.452896 324.116486,231.810532 
	C319.167175,231.269089 316.266205,231.504654 316.842529,237.415482 
	C316.888184,237.883621 315.810883,238.461243 315.255463,238.987976 
z"/>
<path fill="#F5F7F9" opacity="1.000000" stroke="none" 
	d="
M190.705154,137.733932 
	C189.472931,138.907333 188.611176,141.159668 186.417923,138.541550 
	C185.419968,137.350281 182.723175,137.128082 180.831787,137.215958 
	C171.350327,137.656418 161.880356,138.345032 152.025482,138.969864 
	C151.545364,138.240189 151.446106,137.487076 151.604034,136.130020 
	C151.725891,134.361816 151.590546,133.197571 151.455200,132.033310 
	C151.421173,131.258057 151.387146,130.482803 151.586853,129.180328 
	C151.846115,128.180283 151.871658,127.707451 151.897202,127.234612 
	C160.163681,127.077194 168.444870,126.594559 176.687347,126.967537 
	C179.052063,127.074539 181.435898,129.485123 183.574692,131.144104 
	C186.047333,133.062027 188.259003,135.316391 190.705154,137.733932 
M181.577682,134.516815 
	C181.577682,134.516815 181.477600,134.574539 181.577682,134.516815 
z"/>
<path fill="#81C0DA" opacity="1.000000" stroke="none" 
	d="
M315.276215,253.992310 
	C315.212555,250.897324 315.148865,247.802353 315.593811,244.315598 
	C318.451508,242.621857 321.086853,239.869537 323.100464,240.267029 
	C332.191132,242.061508 341.858948,239.544220 350.536987,243.981995 
	C350.536987,250.218567 350.536987,256.455139 350.536987,262.967621 
	C347.059906,262.482849 343.736542,262.019470 340.478943,260.996674 
	C343.250732,260.437225 345.956757,260.437225 348.603271,260.437225 
	C349.434570,252.564377 348.242157,251.300552 340.868469,251.637756 
	C340.246033,251.666199 339.616577,251.225784 338.971222,251.117905 
	C332.661316,250.063309 326.347351,249.033157 321.085236,248.168640 
	C318.723541,250.536316 316.999878,252.264313 315.276215,253.992310 
z"/>
<path fill="#A4D0E6" opacity="1.000000" stroke="none" 
	d="
M185.980560,215.012650 
	C185.989624,218.369186 185.998688,221.725739 185.591400,225.484283 
	C183.722656,225.590744 182.278625,225.092850 180.816498,225.032349 
	C171.052856,224.628372 161.285339,224.317688 151.519089,223.976700 
	C151.440308,222.577408 151.361526,221.178116 151.571594,219.041595 
	C151.982819,216.189362 152.105194,214.074341 152.604614,211.985001 
	C163.981293,213.011337 174.980927,214.011993 185.980560,215.012650 
z"/>
<path fill="#7CBEDB" opacity="1.000000" stroke="none" 
	d="
M315.192871,254.440674 
	C316.999878,252.264313 318.723541,250.536316 321.085236,248.168640 
	C326.347351,249.033157 332.661316,250.063309 338.971222,251.117905 
	C339.616577,251.225784 340.246033,251.666199 340.868469,251.637756 
	C348.242157,251.300552 349.434570,252.564377 348.603271,260.437225 
	C345.956757,260.437225 343.250732,260.437225 340.268158,260.714233 
	C339.541748,260.961517 339.091919,260.931793 338.240631,260.486389 
	C333.691284,258.323120 329.833771,258.949677 326.076202,261.304504 
	C322.774689,263.373535 319.426117,265.533722 315.201080,263.998596 
	C315.170532,260.962067 315.140015,257.925537 315.192871,254.440674 
z"/>
<path fill="#E9F3F7" opacity="1.000000" stroke="none" 
	d="
M232.012177,205.448730 
	C232.485062,204.845932 233.105057,204.840317 233.397568,204.527985 
	C234.709686,203.126907 235.824951,200.534729 237.202240,200.405304 
	C240.332230,200.111252 243.586136,200.939575 246.767426,201.450256 
	C249.340958,201.863373 251.861603,202.744995 254.442200,202.942917 
	C258.401947,203.246628 260.516327,201.164673 261.093567,197.183075 
	C261.257324,196.053452 262.483887,195.077896 263.620941,194.385986 
	C263.729919,196.167999 263.440979,197.595688 262.970642,199.329071 
	C260.862854,202.757858 258.936523,205.880951 256.747009,209.124344 
	C255.982925,209.817825 255.482040,210.391006 254.634720,211.015900 
	C251.517044,212.677917 248.745804,214.288177 245.558990,215.930145 
	C241.148468,216.291199 237.153534,216.620560 233.158569,216.949936 
	C232.775223,213.268188 232.391861,209.586456 232.012177,205.448730 
z"/>
<path fill="#ADD5E7" opacity="1.000000" stroke="none" 
	d="
M276.030151,200.434601 
	C280.601746,202.121780 285.260162,201.858444 290.165924,201.371002 
	C293.000275,201.089371 296.086243,202.735535 298.939178,203.827133 
	C299.426971,204.013794 299.573242,205.821732 299.408295,206.801743 
	C299.200653,208.035446 298.510681,209.187988 298.040283,210.760666 
	C294.414581,215.250641 290.777435,219.355469 286.743408,223.908157 
	C282.383484,217.987289 278.533813,212.759354 274.540955,207.241577 
	C274.939392,204.915436 275.481018,202.879135 276.030151,200.434601 
z"/>
<path fill="#A4D0E6" opacity="1.000000" stroke="none" 
	d="
M349.836456,220.963867 
	C340.943542,220.832062 332.034729,220.967300 323.165375,220.439621 
	C319.517578,220.222595 318.199493,222.129456 316.458069,224.480576 
	C315.892853,223.591782 315.655670,222.818359 315.418488,222.044937 
	C315.307220,221.275864 315.195923,220.506790 315.284851,219.263519 
	C315.658478,218.455139 315.563904,218.203522 315.201294,218.034500 
	C315.159546,216.947067 315.117798,215.859650 315.165039,214.372437 
	C315.816803,213.516678 316.379639,213.060684 317.349609,212.348938 
	C318.861206,212.329575 319.992157,212.855209 321.066010,212.756973 
	C330.378021,211.905106 339.679749,210.941147 348.988342,210.386475 
	C349.270325,212.162094 349.548553,213.561783 349.868378,215.390503 
	C349.885498,217.534302 349.860992,219.249084 349.836456,220.963867 
z"/>
<path fill="#99D1E6" opacity="1.000000" stroke="none" 
	d="
M151.408234,224.309265 
	C161.285339,224.317688 171.052856,224.628372 180.816498,225.032349 
	C182.278625,225.092850 183.722656,225.590744 185.590698,225.941040 
	C186.006348,225.995773 186.011230,226.490921 186.006195,227.190140 
	C185.998749,230.594742 185.996323,233.300110 185.993896,236.005493 
	C183.355743,235.668716 180.726517,235.198929 178.077698,235.021393 
	C171.507065,234.581009 164.930344,234.186478 158.349609,233.970993 
	C156.550156,233.912048 154.727814,234.551376 152.479767,234.730896 
	C151.941788,234.327316 151.762222,234.136276 151.504822,234.018402 
	C151.451370,231.959091 151.397919,229.899796 151.566330,227.315140 
	C151.932220,226.438599 151.829239,226.181396 151.479233,226.018204 
	C151.418610,225.559402 151.357986,225.100616 151.408234,224.309265 
z"/>
<path fill="#ADD5E7" opacity="1.000000" stroke="none" 
	d="
M203.536469,211.239990 
	C203.497162,209.824081 204.077148,208.462494 203.657730,207.571121 
	C202.716843,205.571487 201.279373,203.805511 200.261993,202.272690 
	C207.484940,202.549194 214.481277,202.497742 221.372467,203.323593 
	C222.936356,203.511017 224.135590,206.741135 225.783798,208.811798 
	C222.808548,213.757751 219.552185,218.462631 215.421631,224.430573 
	C211.194000,219.768845 207.448074,215.638275 203.536469,211.239990 
z"/>
<path fill="#ABD8E9" opacity="1.000000" stroke="none" 
	d="
M348.984558,210.010544 
	C339.679749,210.941147 330.378021,211.905106 321.066010,212.756973 
	C319.992157,212.855209 318.861206,212.329575 317.384460,212.051926 
	C316.972626,201.999680 316.976410,202.158600 326.661407,201.928024 
	C330.900116,201.827118 335.117645,200.539261 339.348816,200.515854 
	C342.544250,200.498184 345.746094,201.632996 349.399841,202.394836 
	C349.911957,203.761688 349.969269,204.988617 350.017273,206.821899 
	C350.006500,207.622437 350.004974,207.816589 349.981140,208.264328 
	C349.929626,208.685059 349.900391,208.852234 349.675354,209.136536 
	C349.243103,209.459259 349.078125,209.711533 348.984558,210.010544 
z"/>
<path fill="#8ACAE3" opacity="1.000000" stroke="none" 
	d="
M350.631714,243.609467 
	C341.858948,239.544220 332.191132,242.061508 323.100464,240.267029 
	C321.086853,239.869537 318.451508,242.621857 315.682068,243.924866 
	C315.202606,242.511169 315.143463,241.096420 315.169922,239.334839 
	C315.810883,238.461243 316.888184,237.883621 316.842529,237.415482 
	C316.266205,231.504654 319.167175,231.269089 324.116486,231.810532 
	C329.988434,232.452896 336.018463,231.502823 341.972870,231.616211 
	C344.135712,231.657410 346.278076,232.774155 348.630859,233.458679 
	C348.873016,235.489716 349.103882,237.425797 349.674744,239.842834 
	C350.131378,240.585266 350.309235,240.794769 350.548340,240.952255 
	C350.607697,241.713806 350.667053,242.475372 350.631714,243.609467 
z"/>
<path fill="#ADD5E7" opacity="1.000000" stroke="none" 
	d="
M263.152069,199.023392 
	C263.440979,197.595688 263.729919,196.167999 264.013611,194.370941 
	C263.945282,183.645432 263.815643,173.299728 259.013672,163.190735 
	C258.741028,162.481674 258.758392,162.240021 258.842010,162.003159 
	C262.469269,160.041214 263.048981,163.225098 263.932831,165.257324 
	C269.788971,178.722015 272.626984,192.693893 270.114014,207.304611 
	C269.276459,201.271271 268.905151,195.352570 268.533844,189.433884 
	C268.017059,189.414963 267.500275,189.396042 266.983490,189.377136 
	C266.876007,190.725052 266.535950,192.103516 266.708221,193.414673 
	C267.096710,196.371964 266.894073,198.766998 263.152069,199.023392 
z"/>
<path fill="#93CAE1" opacity="1.000000" stroke="none" 
	d="
M254.981171,210.964172 
	C255.482040,210.391006 255.982925,209.817825 257.125854,209.124817 
	C259.746277,208.221252 261.724640,207.437531 264.924988,206.169754 
	C265.635773,209.340591 266.344574,212.378250 266.990295,215.429276 
	C267.381500,217.277817 267.675049,219.147064 268.012451,221.007004 
	C267.554596,224.445984 267.096771,227.884949 266.393250,231.832245 
	C266.029846,232.519669 265.980560,232.715988 265.999664,232.929520 
	C265.999664,232.929520 266.019928,232.986099 265.719238,232.723740 
	C265.589081,230.369736 266.049683,228.248306 265.839081,226.195770 
	C265.667847,224.526993 264.979279,222.695999 263.917877,221.449997 
	C263.543579,221.010605 261.381683,222.081497 260.041260,222.480682 
	C258.361633,222.980896 256.687500,223.499496 255.034729,223.678772 
	C255.307205,219.217957 252.194977,215.109482 254.981171,210.964172 
z"/>
<path fill="#F3F2F4" opacity="1.000000" stroke="none" 
	d="
M271.237793,227.919769 
	C271.228973,226.204300 271.220154,224.488846 271.587860,222.205597 
	C271.963409,220.911224 271.962402,220.184647 271.961395,219.458069 
	C272.449982,217.432892 272.938568,215.407715 273.571381,212.784882 
	C280.093384,220.059952 285.266541,227.144211 281.653320,237.646667 
	C281.250427,238.201569 281.093231,238.349213 281.122406,238.418900 
	C281.214874,238.639984 281.376892,238.831970 281.512024,239.035202 
	C281.547302,239.427505 281.582611,239.819809 281.224365,240.469452 
	C280.179626,239.877991 279.518860,239.036362 278.878998,238.179108 
	C276.328369,234.761978 273.784332,231.339966 271.237793,227.919769 
z"/>
<path fill="#E9F3F7" opacity="1.000000" stroke="none" 
	d="
M220.491211,239.932922 
	C220.050049,236.837311 219.060410,233.694580 219.321243,230.659302 
	C219.584686,227.593964 220.739914,224.459869 222.141998,221.677139 
	C223.661758,218.660873 225.917587,216.015472 228.361694,212.469406 
	C229.013016,215.378021 229.456406,217.358032 229.864044,220.030548 
	C230.107574,221.470078 230.386826,222.217087 230.666077,222.964111 
	C230.725723,223.424789 230.785370,223.885468 230.577545,224.943054 
	C227.609009,230.417618 224.923615,235.304260 222.147705,240.138947 
	C222.040466,240.325729 221.063110,240.012939 220.491211,239.932922 
z"/>
<path fill="#EAE9EF" opacity="1.000000" stroke="none" 
	d="
M258.721802,161.640106 
	C258.758392,162.240021 258.741028,162.481674 258.769165,162.911621 
	C258.748413,163.095139 258.284637,163.094727 258.284637,163.094727 
	C258.284637,163.094727 257.821381,163.116806 257.588074,163.106445 
	C257.698914,162.416245 258.043060,161.736435 258.369690,161.091232 
	C252.859894,160.840027 247.618225,160.601028 242.376556,160.362045 
	C242.189041,159.788254 242.001511,159.214478 241.813980,158.640686 
	C244.661652,154.542465 247.509308,150.444244 251.025650,145.383682 
	C254.290741,150.002289 257.044495,153.607452 259.395721,157.458389 
	C259.889954,158.267883 258.904968,159.980545 258.721802,161.640106 
z"/>
<path fill="#81C0DA" opacity="1.000000" stroke="none" 
	d="
M255.010986,224.010147 
	C256.687500,223.499496 258.361633,222.980896 260.041260,222.480682 
	C261.381683,222.081497 263.543579,221.010605 263.917877,221.449997 
	C264.979279,222.695999 265.667847,224.526993 265.839081,226.195770 
	C266.049683,228.248306 265.589081,230.369736 265.689972,232.730499 
	C265.781250,234.482300 265.601135,235.964981 264.734253,237.711395 
	C260.832977,238.321671 257.618469,238.668182 254.403961,239.014709 
	C254.514359,238.267914 254.624756,237.521149 254.741882,236.239578 
	C254.748596,235.704788 254.755783,235.581924 254.755783,235.581924 
	C254.584229,232.013184 254.412689,228.444458 254.409103,224.441376 
	C254.577072,224.007034 255.010986,224.010147 255.010986,224.010147 
z"/>
<path fill="#93CAE1" opacity="1.000000" stroke="none" 
	d="
M233.166855,217.373383 
	C237.153534,216.620560 241.148468,216.291199 245.707184,216.285233 
	C246.810883,219.066650 247.350845,221.524643 247.890808,223.982651 
	C247.879684,224.182404 247.868591,224.382141 247.530411,224.993103 
	C247.109634,225.847763 247.015976,226.291199 246.922302,226.734634 
	C246.906967,226.955673 246.891617,227.176712 246.523193,227.851791 
	C241.578491,226.230225 238.958649,229.583557 235.998581,232.000137 
	C235.057434,227.265701 234.116272,222.531265 233.166855,217.373383 
z"/>
<path fill="#A4D0E6" opacity="1.000000" stroke="none" 
	d="
M268.323883,220.776550 
	C267.675049,219.147064 267.381500,217.277817 266.990295,215.429276 
	C266.344574,212.378250 265.635773,209.340591 264.924988,206.169754 
	C261.724640,207.437531 259.746277,208.221252 257.389038,209.004517 
	C258.936523,205.880951 260.862854,202.757858 262.970642,199.329071 
	C266.894073,198.766998 267.096710,196.371964 266.708221,193.414673 
	C266.535950,192.103516 266.876007,190.725052 266.983490,189.377136 
	C267.500275,189.396042 268.017059,189.414963 268.533844,189.433884 
	C268.905151,195.352570 269.276459,201.271271 269.812683,207.570190 
	C269.530212,212.148987 269.082764,216.347534 268.323883,220.776550 
z"/>
<path fill="#81C0DA" opacity="1.000000" stroke="none" 
	d="
M236.010178,232.403107 
	C238.958649,229.583557 241.578491,226.230225 246.436905,228.172760 
	C247.082031,231.127762 247.460358,234.215836 247.410675,237.910461 
	C243.736771,238.332413 240.490891,238.147797 237.244995,237.963181 
	C236.837250,236.244156 236.429520,234.525116 236.010178,232.403107 
z"/>
<path fill="#90B9D2" opacity="1.000000" stroke="none" 
	d="
M270.967102,228.161499 
	C273.784332,231.339966 276.328369,234.761978 278.878998,238.179108 
	C279.518860,239.036362 280.179626,239.877991 281.150696,240.757263 
	C281.260620,243.011215 281.050629,245.234695 280.687683,249.077682 
	C276.616943,243.685135 273.046356,239.566574 270.289124,234.961090 
	C269.361542,233.411728 270.501434,230.624634 270.967102,228.161499 
z"/>
<path fill="#90B9D2" opacity="1.000000" stroke="none" 
	d="
M220.355515,240.311584 
	C221.063110,240.012939 222.040466,240.325729 222.147705,240.138947 
	C224.923615,235.304260 227.609009,230.417618 230.528259,225.290421 
	C235.625717,235.707626 226.898270,240.953003 221.710739,248.923676 
	C221.064285,245.353668 220.642059,243.021957 220.355515,240.311584 
z"/>
<path fill="#A4D0E6" opacity="1.000000" stroke="none" 
	d="
M248.173035,223.740021 
	C247.350845,221.524643 246.810883,219.066650 246.122742,216.253540 
	C248.745804,214.288177 251.517044,212.677917 254.634735,211.015915 
	C252.194977,215.109482 255.307205,219.217957 255.034729,223.678772 
	C255.010986,224.010147 254.577072,224.007034 254.360352,223.996704 
	C253.287094,222.118851 252.430542,220.251328 251.096252,217.342194 
	C249.906021,220.116211 249.180634,221.806793 248.173035,223.740021 
z"/>
<path fill="#81C0DA" opacity="1.000000" stroke="none" 
	d="
M315.123718,264.388611 
	C319.426117,265.533722 322.774689,263.373535 326.076202,261.304504 
	C329.833771,258.949677 333.691284,258.323120 337.917725,260.385498 
	C330.562500,262.985138 323.128754,265.269958 315.318787,267.670441 
	C315.301178,267.483612 315.173798,266.131134 315.123718,264.388611 
z"/>
<path fill="#E9F3F7" opacity="1.000000" stroke="none" 
	d="
M153.004379,162.592651 
	C153.004288,166.366318 153.000961,169.727142 153.003540,173.546539 
	C152.999573,178.026917 152.989716,182.048721 152.986694,186.533173 
	C152.993530,186.995850 152.984665,187.490173 152.797592,187.729370 
	C152.610519,187.968582 152.233505,187.936569 152.190186,187.659409 
	C151.919556,186.900604 151.692230,186.418961 151.464905,185.937332 
	C151.428864,185.209564 151.392838,184.481781 151.639923,183.118286 
	C151.767532,180.646698 151.612015,178.810837 151.456497,176.974976 
	C151.425552,176.221451 151.394592,175.467911 151.629425,174.090607 
	C151.753540,171.985519 151.611893,170.504196 151.470245,169.022888 
	C151.434860,168.014786 151.399475,167.006683 151.623627,165.263763 
	C151.977005,161.689209 152.070847,158.849442 152.164673,156.009689 
	C152.443497,158.066391 152.722321,160.123108 153.004379,162.592651 
z"/>
<path fill="#C7E3EF" opacity="1.000000" stroke="none" 
	d="
M254.300873,239.393494 
	C257.618469,238.668182 260.832977,238.321671 264.465424,237.974579 
	C263.123749,242.439346 259.019318,242.074661 255.355118,242.416626 
	C255.054230,242.444702 254.587479,240.695618 254.300873,239.393494 
z"/>
<path fill="#ADD5E7" opacity="1.000000" stroke="none" 
	d="
M350.032867,171.963791 
	C350.042175,169.941422 350.051514,167.919067 350.060150,165.465179 
	C350.219391,164.171097 350.379272,163.308533 350.798889,162.241913 
	C351.235413,167.819870 351.412231,173.601913 351.297302,179.678391 
	C350.684845,178.585861 350.364197,177.198898 350.041809,175.044647 
	C350.037689,173.506165 350.035278,172.734970 350.032867,171.963791 
z"/>
<path fill="#BADDEB" opacity="1.000000" stroke="none" 
	d="
M237.304749,238.241455 
	C240.490891,238.147797 243.736771,238.332413 247.296082,238.334839 
	C247.868088,239.493958 248.126694,240.835266 248.529938,242.926758 
	C244.646729,241.810547 241.685883,240.959457 238.409348,239.755875 
	C238.049377,239.177032 237.914871,239.038132 237.690109,238.986664 
	C237.581589,238.831024 237.473053,238.675385 237.304749,238.241455 
z"/>
<path fill="#C7E3EF" opacity="1.000000" stroke="none" 
	d="
M152.233505,187.936569 
	C152.233505,187.936569 152.610519,187.968582 152.799347,187.976562 
	C152.992477,192.015823 152.996780,196.047104 152.987762,200.810593 
	C152.718063,201.983246 152.461685,202.423691 152.018753,202.818558 
	C151.832199,202.772980 151.466125,202.889130 151.466125,202.889130 
	C151.418076,200.878433 151.370041,198.867722 151.600662,196.098389 
	C151.997375,192.872040 152.115448,190.404297 152.233505,187.936569 
z"/>
<path fill="#D2E9F2" opacity="1.000000" stroke="none" 
	d="
M229.274872,180.799500 
	C227.138428,179.180237 225.261520,177.356537 223.192596,175.266113 
	C223.000580,174.999390 223.000000,175.000000 223.214050,174.891235 
	C223.696564,174.586105 223.882584,174.329895 223.986176,174.013824 
	C224.170715,173.915970 224.355255,173.818100 224.837326,173.621704 
	C226.601349,175.880493 228.067871,178.237778 229.274872,180.799500 
z"/>
<path fill="#A4D0E6" opacity="1.000000" stroke="none" 
	d="
M185.994904,236.436783 
	C185.996323,233.300110 185.998749,230.594742 186.005920,227.437729 
	C186.187027,226.985184 186.363419,226.984283 186.804291,226.976654 
	C187.152405,232.356583 187.236023,237.743225 187.198700,243.589020 
	C186.717133,241.654800 186.356522,239.261444 185.994904,236.436783 
z"/>
<path fill="#7AB7D2" opacity="1.000000" stroke="none" 
	d="
M151.332672,203.345779 
	C151.466125,202.889130 151.832199,202.772980 151.974640,203.280487 
	C152.153915,206.511780 152.190735,209.235550 152.227570,211.959320 
	C152.105194,214.074341 151.982819,216.189362 151.649338,218.625305 
	C151.358566,213.898300 151.278900,208.850357 151.332672,203.345779 
z"/>
<path fill="#D2E9F2" opacity="1.000000" stroke="none" 
	d="
M350.003418,192.007034 
	C349.668549,190.916016 349.333679,189.824997 348.997559,188.368622 
	C349.383514,187.050415 349.770691,186.097549 350.483398,185.075989 
	C350.856415,187.043701 350.903839,189.080093 350.682129,191.557480 
	C350.412994,191.998474 350.003418,192.007034 350.003418,192.007034 
z"/>
<path fill="#A4D0E6" opacity="1.000000" stroke="none" 
	d="
M151.583557,270.304626 
	C151.923843,273.777924 151.942429,277.507812 151.754303,281.578369 
	C151.452362,278.133057 151.357101,274.347137 151.583557,270.304626 
z"/>
<path fill="#E9F3F7" opacity="1.000000" stroke="none" 
	d="
M231.690765,189.290390 
	C231.988113,192.698273 231.973175,196.378967 231.835297,200.427002 
	C231.601074,197.050629 231.489777,193.306931 231.690765,189.290390 
z"/>
<path fill="#7AB7D2" opacity="1.000000" stroke="none" 
	d="
M152.109589,155.701935 
	C152.070847,158.849442 151.977005,161.689209 151.676422,164.966003 
	C151.360870,161.584610 151.252045,157.766159 151.279358,153.523224 
	C151.628494,153.863876 151.841492,154.629028 152.109589,155.701935 
z"/>
<path fill="#81C0DA" opacity="1.000000" stroke="none" 
	d="
M315.358337,222.495667 
	C315.655670,222.818359 315.892853,223.591782 316.178131,224.676331 
	C316.058929,227.442383 315.891632,229.897293 315.477356,232.658890 
	C315.253021,229.625839 315.275604,226.286133 315.358337,222.495667 
z"/>
<path fill="#BADDEB" opacity="1.000000" stroke="none" 
	d="
M348.988342,210.386475 
	C349.078125,209.711533 349.243103,209.459259 349.742065,209.333923 
	C350.085999,209.704834 350.268951,209.900528 350.553406,210.001221 
	C350.602600,211.369858 350.651794,212.738510 350.440735,214.486603 
	C350.180542,214.866074 349.826752,214.961472 349.826752,214.961472 
	C349.548553,213.561783 349.270325,212.162094 348.988342,210.386475 
z"/>
<path fill="#7AB7D2" opacity="1.000000" stroke="none" 
	d="
M152.190186,187.659409 
	C152.115448,190.404297 151.997375,192.872040 151.662994,195.669907 
	C151.354599,192.938217 151.262527,189.876389 151.317688,186.375946 
	C151.692230,186.418961 151.919556,186.900604 152.190186,187.659409 
z"/>
<path fill="#C7E3EF" opacity="1.000000" stroke="none" 
	d="
M227.648163,200.586426 
	C227.355682,199.733749 227.114487,198.483871 227.157089,197.128082 
	C227.527069,198.077850 227.613251,199.133545 227.648163,200.586426 
z"/>
<path fill="#81C0DA" opacity="1.000000" stroke="none" 
	d="
M350.658752,240.525452 
	C350.309235,240.794769 350.131378,240.585266 349.922607,240.135010 
	C349.936859,237.868851 350.043243,235.791443 350.351562,233.394226 
	C350.625336,235.415848 350.697235,237.757263 350.658752,240.525452 
z"/>
<path fill="#7AB7D2" opacity="1.000000" stroke="none" 
	d="
M151.428284,244.513306 
	C151.656265,246.160385 151.774582,248.221619 151.715744,250.582733 
	C151.465271,248.897583 151.391953,246.912506 151.428284,244.513306 
z"/>
<path fill="#81C0DA" opacity="1.000000" stroke="none" 
	d="
M349.868378,215.390503 
	C349.826752,214.961472 350.180542,214.866074 350.362030,214.891022 
	C350.626129,216.669571 350.708771,218.423187 350.680237,220.602859 
	C350.569061,221.028931 350.200287,221.040985 350.018372,221.002426 
	C349.860992,219.249084 349.885498,217.534302 349.868378,215.390503 
z"/>
<path fill="#7AB7D2" opacity="1.000000" stroke="none" 
	d="
M151.305298,177.387604 
	C151.612015,178.810837 151.767532,180.646698 151.697113,182.757507 
	C151.365494,181.288391 151.259796,179.544312 151.305298,177.387604 
z"/>
<path fill="#7AB7D2" opacity="1.000000" stroke="none" 
	d="
M151.375610,234.424805 
	C151.762222,234.136276 151.941788,234.327316 152.133377,234.771912 
	C152.112228,236.394882 152.001236,237.837463 151.712219,239.587830 
	C151.438248,238.207458 151.342331,236.519333 151.375610,234.424805 
z"/>
<path fill="#7AB7D2" opacity="1.000000" stroke="none" 
	d="
M151.321503,169.416534 
	C151.611893,170.504196 151.753540,171.985519 151.682663,173.716614 
	C151.371017,172.580994 151.271896,171.195587 151.321503,169.416534 
z"/>
<path fill="#7AB7D2" opacity="1.000000" stroke="none" 
	d="
M151.287476,146.427704 
	C151.635574,147.134979 151.842850,148.218887 152.091461,149.645416 
	C152.132812,149.988037 151.779526,150.107086 151.607056,150.034271 
	C151.338608,148.909088 151.242630,147.856720 151.287476,146.427704 
z"/>
<path fill="#DDEEF5" opacity="1.000000" stroke="none" 
	d="
M280.820312,170.161530 
	C280.605255,170.705811 280.223206,171.136032 279.725586,171.687622 
	C279.957764,171.221817 280.305511,170.634628 280.820312,170.161530 
z"/>
<path fill="#7AB7D2" opacity="1.000000" stroke="none" 
	d="
M151.305603,132.409119 
	C151.590546,133.197571 151.725891,134.361816 151.650909,135.747681 
	C151.345703,134.907837 151.250854,133.846375 151.305603,132.409119 
z"/>
<path fill="#EAE9EF" opacity="1.000000" stroke="none" 
	d="
M248.852173,163.823547 
	C248.338852,163.977631 247.558792,164.004715 246.508698,163.917450 
	C247.020920,163.767609 247.803177,163.732086 248.852173,163.823547 
z"/>
<path fill="#EAE9EF" opacity="1.000000" stroke="none" 
	d="
M255.456375,163.785019 
	C254.976883,163.919067 254.207535,163.987122 253.149170,163.998444 
	C253.628937,163.867477 254.397720,163.793243 255.456375,163.785019 
z"/>
<path fill="#C7E3EF" opacity="1.000000" stroke="none" 
	d="
M254.831757,235.531555 
	C254.755783,235.581924 254.748596,235.704788 254.771637,235.672333 
	C254.794693,235.639877 254.784439,235.421112 254.784439,235.421112 
	C254.784439,235.421112 254.907715,235.481186 254.831757,235.531555 
z"/>
<path fill="#DDEEF5" opacity="1.000000" stroke="none" 
	d="
M282.886444,167.485733 
	C283.003143,167.571930 282.933868,167.807297 282.867523,168.070343 
	C282.914337,168.261932 282.963226,168.420944 283.012115,168.579956 
	C282.906555,168.266571 282.800995,167.953186 282.886444,167.485733 
z"/>
<path fill="#90B9D2" opacity="1.000000" stroke="none" 
	d="
M230.734924,222.667938 
	C230.386826,222.217087 230.107574,221.470078 229.912170,220.417404 
	C230.265274,220.865082 230.534531,221.618423 230.734924,222.667938 
z"/>
<path fill="#90B9D2" opacity="1.000000" stroke="none" 
	d="
M271.788513,219.649796 
	C271.962402,220.184647 271.963409,220.911224 271.726776,221.799423 
	C271.531311,221.254532 271.573486,220.548035 271.788513,219.649796 
z"/>
<path fill="#7AB7D2" opacity="1.000000" stroke="none" 
	d="
M151.642181,127.326813 
	C151.871658,127.707451 151.846115,128.180283 151.622559,128.793304 
	C151.412079,128.428680 151.399612,127.923851 151.642181,127.326813 
z"/>
<path fill="#DDEEF5" opacity="1.000000" stroke="none" 
	d="
M350.828735,128.692566 
	C350.471283,128.524612 350.228241,128.065262 349.986145,127.337280 
	C350.305786,127.512825 350.624451,127.957001 350.828735,128.692566 
z"/>
<path fill="#A4D0E6" opacity="1.000000" stroke="none" 
	d="
M350.649170,291.673096 
	C350.432220,291.411285 350.355347,290.853973 350.491760,290.191895 
	C350.733124,290.517273 350.761169,290.947418 350.649170,291.673096 
z"/>
<path fill="#E9F3F7" opacity="1.000000" stroke="none" 
	d="
M231.555069,203.395660 
	C231.811829,203.612000 231.920013,204.060028 232.019012,204.744385 
	C231.808716,204.529572 231.607605,204.078461 231.555069,203.395660 
z"/>
<path fill="#81C0DA" opacity="1.000000" stroke="none" 
	d="
M350.682159,209.679153 
	C350.268951,209.900528 350.085999,209.704834 349.937866,209.216766 
	C349.900391,208.852234 349.929626,208.685059 350.177429,208.254333 
	C350.396027,207.990753 350.789032,207.973160 350.789001,207.973160 
	C350.796295,208.434464 350.803589,208.895782 350.682159,209.679153 
z"/>
<path fill="#81C0DA" opacity="1.000000" stroke="none" 
	d="
M247.147156,226.633698 
	C247.015976,226.291199 247.109634,225.847763 247.371368,225.247589 
	C247.483643,225.571472 247.427841,226.052109 247.147156,226.633698 
z"/>
<path fill="#DDEEF5" opacity="1.000000" stroke="none" 
	d="
M283.867188,166.425232 
	C283.874268,166.513412 283.729095,166.651764 283.490723,166.909119 
	C283.397430,166.779633 283.503204,166.595383 283.867188,166.425232 
z"/>
<path fill="#90B9D2" opacity="1.000000" stroke="none" 
	d="
M281.653381,238.787796 
	C281.376892,238.831970 281.214874,238.639984 281.122406,238.418900 
	C281.093231,238.349213 281.250427,238.201569 281.513031,238.033707 
	C281.734070,238.165344 281.764404,238.352875 281.653381,238.787796 
z"/>
<path fill="#81C0DA" opacity="1.000000" stroke="none" 
	d="
M237.599869,239.159012 
	C237.914871,239.038132 238.049377,239.177032 238.098969,239.555817 
	C237.786011,239.771988 237.587799,239.646362 237.599869,239.159012 
z"/>
<path fill="#81C0DA" opacity="1.000000" stroke="none" 
	d="
M266.184082,232.854828 
	C265.980560,232.715988 266.029846,232.519669 266.264282,232.241608 
	C266.381012,232.142654 266.609222,232.465881 266.609222,232.465881 
	C266.609222,232.465881 266.368530,232.780136 266.184082,232.854828 
z"/>
<path fill="#DDEEF5" opacity="1.000000" stroke="none" 
	d="
M350.837036,133.742126 
	C350.405762,133.840225 350.282623,133.584717 350.535522,133.126801 
	C350.743652,133.180527 350.821533,133.335220 350.837036,133.742126 
z"/>
<path fill="#81C0DA" opacity="1.000000" stroke="none" 
	d="
M315.128479,218.267487 
	C315.563904,218.203522 315.658478,218.455139 315.348877,218.876007 
	C315.212738,218.962677 315.055695,218.500458 315.128479,218.267487 
z"/>
<path fill="#ADD5E7" opacity="1.000000" stroke="none" 
	d="
M350.007507,192.290588 
	C350.003418,192.007034 350.412994,191.998474 350.617065,191.989807 
	C350.740295,192.300400 350.659424,192.619644 350.320190,193.039001 
	C350.045105,192.950806 350.028381,192.762482 350.007507,192.290588 
z"/>
<path fill="#7AB7D2" opacity="1.000000" stroke="none" 
	d="
M151.388519,226.262100 
	C151.829239,226.181396 151.932220,226.438599 151.656540,226.882050 
	C151.449188,226.818192 151.373489,226.662094 151.388519,226.262100 
z"/>
<path fill="#A4D0E6" opacity="1.000000" stroke="none" 
	d="
M350.140625,302.712769 
	C349.797974,302.475250 349.831543,302.258179 350.184509,302.018219 
	C350.353058,301.972107 350.618835,302.336487 350.618835,302.336487 
	C350.618835,302.336487 350.365997,302.709900 350.140625,302.712769 
z"/>
<path fill="#A4D0E6" opacity="1.000000" stroke="none" 
	d="
M151.391632,284.261261 
	C151.623779,284.282166 151.734802,284.549561 151.697617,284.898926 
	C151.456451,284.823212 151.363495,284.665497 151.391632,284.261261 
z"/>
<path fill="#7AB7D2" opacity="1.000000" stroke="none" 
	d="
M151.427368,253.278290 
	C151.830307,253.223190 151.911911,253.460419 151.672546,253.853271 
	C151.478485,253.795013 151.396637,253.648926 151.427368,253.278290 
z"/>
<path fill="#BADDEB" opacity="1.000000" stroke="none" 
	d="
M350.860077,207.710236 
	C350.789032,207.973160 350.396027,207.990753 350.199768,208.000763 
	C350.004974,207.816589 350.006500,207.622437 350.031982,207.137527 
	C350.347656,207.046951 350.639404,207.247131 350.860077,207.710236 
z"/>
<path fill="#020203" opacity="1.000000" stroke="none" 
	d="
M172.514130,359.645630 
	C176.608337,358.269226 180.511795,357.260773 184.415268,356.252350 
	C184.866501,356.633881 185.317734,357.015411 185.768982,357.396942 
	C184.501617,359.735352 183.782333,362.965515 181.819321,364.172058 
	C179.674103,365.490509 176.345047,365.247375 173.609802,364.955536 
	C173.012024,364.891754 172.743515,361.742035 172.514130,359.645630 
z"/>
<path fill="#DDEEF5" opacity="1.000000" stroke="none" 
	d="
M349.771332,172.177856 
	C350.035278,172.734970 350.037689,173.506165 350.038391,174.663696 
	C349.864166,175.038895 349.691711,175.027756 349.260254,175.007385 
	C349.170746,174.129425 349.340271,173.260681 349.771332,172.177856 
z"/>
<path fill="#D2E9F2" opacity="1.000000" stroke="none" 
	d="
M278.453644,176.529755 
	C278.423920,176.478714 278.483368,176.580811 278.453644,176.529755 
z"/>
<path fill="#ABD8E9" opacity="1.000000" stroke="none" 
	d="
M152.604614,211.985001 
	C152.190735,209.235550 152.153915,206.511780 152.161194,203.326080 
	C152.461685,202.423691 152.718063,201.983246 152.991241,201.273041 
	C161.503128,201.669662 169.988480,202.601242 178.496597,202.913971 
	C184.706085,203.142212 185.542175,203.491302 185.969803,209.667496 
	C186.072052,211.144043 185.990250,212.633331 185.986847,214.564697 
	C174.980927,214.011993 163.981293,213.011337 152.604614,211.985001 
z"/>
<path fill="#020203" opacity="1.000000" stroke="none" 
	d="
M320.786133,367.443298 
	C312.765167,362.337158 312.422821,349.330353 317.461273,342.883575 
	C322.528748,336.399719 333.134766,335.331238 340.264099,340.683533 
	C346.289673,345.207245 347.940735,355.266571 343.877380,362.698578 
	C340.662964,368.577850 331.343567,371.812775 324.712646,369.321228 
	C323.469696,368.854187 322.277222,368.252991 320.786133,367.443298 
z"/>
<path fill="#171B24" opacity="1.000000" stroke="none" 
	d="
M250.057526,196.452301 
	C243.165421,194.018326 240.095108,190.172195 240.923096,185.009766 
	C241.851135,179.223450 245.159180,175.999039 250.246857,175.921738 
	C256.339630,175.829163 259.756653,178.480392 260.733917,184.058533 
	C261.696686,189.553909 258.658356,194.113052 251.994537,196.221497 
	C250.900803,196.336914 250.479156,196.394608 250.057526,196.452301 
M245.026855,190.234177 
	C248.817352,193.909988 252.121063,194.210754 255.640427,191.200455 
	C258.386353,188.851715 258.561401,184.239334 255.595047,180.251160 
	C252.435211,177.647842 249.174744,178.110626 246.318405,180.489349 
	C243.385651,182.931702 242.769760,186.117661 245.026855,190.234177 
z"/>
<path fill="#E9F3F7" opacity="1.000000" stroke="none" 
	d="
M250.218689,196.601532 
	C250.479156,196.394608 250.900803,196.336914 251.633560,196.362610 
	C251.423065,196.547607 250.901459,196.649185 250.218689,196.601532 
z"/>
<path fill="#C7E3EF" opacity="1.000000" stroke="none" 
	d="
M219.455444,172.529480 
	C219.426529,172.479019 219.484360,172.579926 219.455444,172.529480 
z"/>
<path fill="#C7E3EF" opacity="1.000000" stroke="none" 
	d="
M223.771271,174.122269 
	C223.882584,174.329895 223.696564,174.586105 223.213486,174.891815 
	C223.102158,174.684616 223.287994,174.427795 223.771271,174.122269 
z"/>
<path fill="#E9F3F7" opacity="1.000000" stroke="none" 
	d="
M181.527649,134.545685 
	C181.477600,134.574539 181.577682,134.516815 181.527649,134.545685 
z"/>
<path fill="#A4D0E6" opacity="1.000000" stroke="none" 
	d="
M256.031860,180.886414 
	C258.561401,184.239334 258.386353,188.851715 255.640427,191.200455 
	C252.121063,194.210754 248.817352,193.909988 245.053543,189.531250 
	C248.730774,186.181030 252.381317,183.533722 256.031860,180.886414 
z"/>
<path fill="#EAE9EF" opacity="1.000000" stroke="none" 
	d="
M255.813446,180.568787 
	C252.381317,183.533722 248.730774,186.181030 244.967285,189.192047 
	C242.769760,186.117661 243.385651,182.931702 246.318405,180.489349 
	C249.174744,178.110626 252.435211,177.647842 255.813446,180.568787 
z"/>
</svg>